<svg version="1.1" id="Layer_1" xmlns="http://www.w3.org/2000/svg" xmlns:xlink="http://www.w3.org/1999/xlink" x="0px" y="0px"
	 width="100%" viewBox="0 0 64 64" enable-background="new 0 0 64 64" xml:space="preserve">
<path fill="#000000" opacity="1.000000" stroke="none" 
	d="
M35.000000,65.000000 
	C23.355185,65.000000 12.210369,65.000000 1.032777,65.000000 
	C1.032777,43.730305 1.032777,22.460548 1.032777,1.095395 
	C22.227612,1.095395 43.455791,1.095395 64.841988,1.095395 
	C64.841988,22.332405 64.841988,43.666084 64.841988,65.000000 
	C55.128159,65.000000 45.314079,65.000000 35.000000,65.000000 
M18.507355,30.000000 
	C14.350480,30.000381 10.177123,29.799353 6.047871,30.137266 
	C4.962930,30.226051 4.014591,31.984087 3.003520,32.975555 
	C3.998296,33.983299 4.841342,35.283245 6.037007,35.904118 
	C6.953907,36.380234 8.315689,35.999939 9.479610,35.999947 
	C22.575165,36.000031 35.670719,36.000000 49.632198,36.000000 
	C48.777622,37.709560 48.450779,38.970570 47.670887,39.811337 
	C45.189148,42.486786 42.186234,44.753674 40.090855,47.683468 
	C38.906994,49.338764 38.003544,52.834743 38.909534,54.012371 
	C40.967110,56.686848 43.164291,54.395283 44.954914,52.590000 
	C50.222332,47.279461 55.431965,41.907021 60.836666,36.739166 
	C63.563808,34.131531 63.803364,32.081596 60.936413,29.363789 
	C55.510162,24.219820 50.330906,18.815466 45.042435,13.525889 
	C43.295975,11.779060 41.192371,9.249046 39.004593,11.893193 
	C38.069839,13.022939 39.255630,16.192667 39.955063,18.275150 
	C40.335377,19.407482 41.720417,20.199675 42.644920,21.152428 
	C45.201187,23.786804 47.753590,26.424940 51.216488,30.000000 
	C39.662792,30.000000 29.584003,30.000000 18.507355,30.000000 
z"/>
<path fill="#FFFFFF" opacity="1.000000" stroke="none" 
	d="
M19.006285,30.000000 
	C29.584003,30.000000 39.662792,30.000000 51.216488,30.000000 
	C47.753590,26.424940 45.201187,23.786804 42.644920,21.152428 
	C41.720417,20.199675 40.335377,19.407482 39.955063,18.275150 
	C39.255630,16.192667 38.069839,13.022939 39.004593,11.893193 
	C41.192371,9.249046 43.295975,11.779060 45.042435,13.525889 
	C50.330906,18.815466 55.510162,24.219820 60.936413,29.363789 
	C63.803364,32.081596 63.563808,34.131531 60.836666,36.739166 
	C55.431965,41.907021 50.222332,47.279461 44.954914,52.590000 
	C43.164291,54.395283 40.967110,56.686848 38.909534,54.012371 
	C38.003544,52.834743 38.906994,49.338764 40.090855,47.683468 
	C42.186234,44.753674 45.189148,42.486786 47.670887,39.811337 
	C48.450779,38.970570 48.777622,37.709560 49.632198,36.000000 
	C35.670719,36.000000 22.575165,36.000031 9.479610,35.999947 
	C8.315689,35.999939 6.953907,36.380234 6.037007,35.904118 
	C4.841342,35.283245 3.998296,33.983299 3.003520,32.975555 
	C4.014591,31.984087 4.962930,30.226051 6.047871,30.137266 
	C10.177123,29.799353 14.350480,30.000381 19.006285,30.000000 
z"/>
</svg>